<svg xmlns="http://www.w3.org/2000/svg" viewBox="0 0 100 100" width="100" height="100">
  <title>Polyglot</title>
  <g stroke="#8A93A6" stroke-width="1.5" opacity="0.65">
    <line x1="50" y1="10" x2="50" y2="50" />
    <line x1="88.04" y1="37.64" x2="50" y2="50" />
    <line x1="73.52" y1="82.36" x2="50" y2="50" />
    <line x1="26.48" y1="82.36" x2="50" y2="50" />
    <line x1="11.96" y1="37.64" x2="50" y2="50" />
  </g>
  <polygon points="50,30 67.32,40 67.32,60 50,70 32.68,60 32.68,40" fill="#14161B" />
  <g fill="none" stroke="#F4F5F7" stroke-width="4.2" stroke-linecap="round" stroke-linejoin="round">
    <path d="M45,42 L53,50 L45,58" />
  </g>
  <rect x="55.5" y="55.8" width="8.5" height="3.6" rx="1" fill="#F4F5F7" />
  <circle cx="50" cy="10" r="4.6" fill="#F97316" />
  <circle cx="88.04" cy="37.64" r="4.6" fill="#14B8A6" />
  <circle cx="73.52" cy="82.36" r="4.6" fill="#8B5CF6" />
  <circle cx="26.48" cy="82.36" r="4.6" fill="#4C6FFF" />
  <circle cx="11.96" cy="37.64" r="4.6" fill="#22C55E" />
</svg>
